# xmcd
#
# Track frame offsets: 
#        150
#        12450
#        25035
#        34130
#        44335
#        55457
#        65672
#        75620
#        83660
#        93387
#        105150
#        115972
#        127562
#        138490
#        149402
#        160092
#
# Disc length: 2236 seconds
#
# Revision: 10
# Processed by: cddbd v1.5.2PL0 Copyright (c) Steve Scherf et al.
# Submitted via: ExactAudioCopy v1.0b3
#
DISCID=ca08ba10
DTITLE=Cash, Johnny - I Walk The Line - 16 Original Recordings
DYEAR=1999
DGENRE=Country
TTITLE0=I Walk The Line
TTITLE1=Folsom Prison Blues
TTITLE2=Blue Train
TTITLE3=You Win Again
TTITLE4=Oh Lonesome Me
TTITLE5=There You Go
TTITLE6=Hey Porter
TTITLE7=Sugartime
TTITLE8=The Story Of A Broken Heart
TTITLE9=Thanks A Lot
TTITLE10=Belshazzar
TTITLE11=So Doggone Lonesome
TTITLE12=Cry, Cry, Cry
TTITLE13=I Love You Because (Rare Alternate Version)
TTITLE14=Train Of Love
TTITLE15=Hey, Good Looking
EXTD=CHARLY LICENSING APS
EXTT0=
EXTT1=
EXTT2=
EXTT3=
EXTT4=
EXTT5=
EXTT6=
EXTT7=
EXTT8=
EXTT9=
EXTT10=
EXTT11=
EXTT12=
EXTT13=(Rare Alternate Version
EXTT14=
EXTT15=
PLAYORDER=
